<svg width="45" height="45" viewBox="0 0 45 45" fill="none" xmlns="http://www.w3.org/2000/svg">
<path d="M39.375 16.875V39.3619C39.3767 39.6081 39.3299 39.8523 39.2373 40.0804C39.1447 40.3086 39.008 40.5162 38.8351 40.6916C38.6622 40.8669 38.4565 41.0064 38.2297 41.1023C38.0028 41.1981 37.7594 41.2483 37.5131 41.25H7.48688C6.9934 41.25 6.52011 41.0541 6.17099 40.7053C5.82188 40.3566 5.6255 39.8835 5.625 39.39V5.61C5.625 4.60313 6.46312 3.75 7.49625 3.75H26.25V15C26.25 15.4973 26.4475 15.9742 26.7992 16.3258C27.1508 16.6775 27.6277 16.875 28.125 16.875H39.375ZM39.375 13.125H30V3.75563L39.375 13.125ZM15 13.125V16.875H20.625V13.125H15ZM15 20.625V24.375H30V20.625H15ZM15 28.125V31.875H30V28.125H15Z" fill="white"/>
</svg>
