<svg width="45" height="45" viewBox="0 0 45 45" fill="none" xmlns="http://www.w3.org/2000/svg">
<path d="M33.7519 37.5H37.5V41.25H22.5C12.1444 41.25 3.75 32.8556 3.75 22.5C3.75 12.1444 12.1444 3.75 22.5 3.75C32.8556 3.75 41.25 12.1444 41.25 22.5C41.2524 25.4111 40.5759 28.2826 39.2743 30.8865C37.9727 33.4903 36.0818 35.7548 33.7519 37.5ZM22.5 18.75C23.4946 18.75 24.4484 18.3549 25.1516 17.6516C25.8549 16.9484 26.25 15.9946 26.25 15C26.25 14.0054 25.8549 13.0516 25.1516 12.3483C24.4484 11.6451 23.4946 11.25 22.5 11.25C21.5054 11.25 20.5516 11.6451 19.8484 12.3483C19.1451 13.0516 18.75 14.0054 18.75 15C18.75 15.9946 19.1451 16.9484 19.8484 17.6516C20.5516 18.3549 21.5054 18.75 22.5 18.75ZM15 26.25C15.9946 26.25 16.9484 25.8549 17.6516 25.1516C18.3549 24.4484 18.75 23.4946 18.75 22.5C18.75 21.5054 18.3549 20.5516 17.6516 19.8484C16.9484 19.1451 15.9946 18.75 15 18.75C14.0054 18.75 13.0516 19.1451 12.3483 19.8484C11.6451 20.5516 11.25 21.5054 11.25 22.5C11.25 23.4946 11.6451 24.4484 12.3483 25.1516C13.0516 25.8549 14.0054 26.25 15 26.25ZM30 26.25C30.9946 26.25 31.9484 25.8549 32.6516 25.1516C33.3549 24.4484 33.75 23.4946 33.75 22.5C33.75 21.5054 33.3549 20.5516 32.6516 19.8484C31.9484 19.1451 30.9946 18.75 30 18.75C29.0054 18.75 28.0516 19.1451 27.3484 19.8484C26.6451 20.5516 26.25 21.5054 26.25 22.5C26.25 23.4946 26.6451 24.4484 27.3484 25.1516C28.0516 25.8549 29.0054 26.25 30 26.25ZM22.5 33.75C23.4946 33.75 24.4484 33.3549 25.1516 32.6516C25.8549 31.9484 26.25 30.9946 26.25 30C26.25 29.0054 25.8549 28.0516 25.1516 27.3484C24.4484 26.6451 23.4946 26.25 22.5 26.25C21.5054 26.25 20.5516 26.6451 19.8484 27.3484C19.1451 28.0516 18.75 29.0054 18.75 30C18.75 30.9946 19.1451 31.9484 19.8484 32.6516C20.5516 33.3549 21.5054 33.75 22.5 33.75Z" fill="white"/>
</svg>
