<svg width="45" height="45" viewBox="0 0 45 45" fill="none" xmlns="http://www.w3.org/2000/svg">
<g clip-path="url(#clip0)">
<path d="M37.7013 7.27527C33.999 3.57507 27.977 3.57507 24.2747 7.27527L16.4471 15.1029L25.3342 23.99C27.1633 22.4668 29.4823 21.5131 32.0429 21.5131C33.5115 21.5131 34.9091 21.8181 36.1808 22.3629L37.7013 20.7019C41.4024 17.0006 41.4024 10.9776 37.7013 7.27527Z" fill="white"/>
<path d="M23.856 25.4939L14.9566 16.5945L7.29548 24.2631C3.5943 27.9643 3.5943 33.9874 7.29548 37.6896C10.9976 41.3896 17.09 41.4602 20.7923 37.7599L22.3454 36.1994C21.8006 34.9277 21.4955 33.5301 21.4955 32.0614C21.4956 29.5666 22.4026 27.3019 23.856 25.4939Z" fill="white"/>
<path d="M23.6041 32.0614C23.6041 36.3606 26.831 39.8692 30.988 40.3937V23.729C26.831 24.2535 23.6041 27.762 23.6041 32.0614Z" fill="white"/>
<path d="M33.0976 23.729V40.3937C37.2547 39.8692 40.4815 36.3606 40.4815 32.0613C40.4815 27.7621 37.2547 24.2535 33.0976 23.729Z" fill="white"/>
</g>
<defs>
<clipPath id="clip0">
<rect width="36" height="36" fill="white" transform="translate(4.5 4.50012)"/>
</clipPath>
</defs>
</svg>
