<svg width="20" height="20" viewBox="0 0 20 20" fill="none" xmlns="http://www.w3.org/2000/svg">
<g clip-path="url(#clip0)">
<path d="M16.7561 3.2334C15.1106 1.58887 12.4342 1.58887 10.7887 3.2334L7.30981 6.71234L11.2596 10.6621C12.0726 9.98518 13.1032 9.5613 14.2412 9.5613C14.894 9.5613 15.5151 9.6969 16.0803 9.93902L16.7561 9.20077C18.4011 7.55577 18.4011 4.87887 16.7561 3.2334Z" fill="white"/>
<path d="M10.6022 11.3305L6.64684 7.37524L3.24191 10.7835C1.59694 12.4285 1.59694 15.1054 3.24191 16.7509C4.88731 18.3953 7.59503 18.4267 9.2405 16.7821L9.93075 16.0885C9.68862 15.5233 9.55303 14.9022 9.55303 14.2494C9.55306 13.1406 9.95619 12.1341 10.6022 11.3305Z" fill="white"/>
<path d="M10.4907 14.2494C10.4907 16.1602 11.9249 17.7196 13.7724 17.9527V10.5461C11.9249 10.7792 10.4907 12.3386 10.4907 14.2494Z" fill="white"/>
<path d="M14.7101 10.5461V17.9527C16.5576 17.7196 17.9918 16.1602 17.9918 14.2494C17.9918 12.3386 16.5577 10.7792 14.7101 10.5461Z" fill="white"/>
</g>
<defs>
<clipPath id="clip0">
<rect width="16" height="16" fill="white" transform="translate(2 2)"/>
</clipPath>
</defs>
</svg>
